<svg viewBox="0 0 512 512" xmlns="http://www.w3.org/2000/svg">
  <g transform="translate(49.58, 427.71) scale(0.33537, -0.33537)">
    <path d="M1188 91Q1109 27 1035.5 -1.5Q962 -30 861 -30Q746 -30 689.5 23.0Q633 76 619 199Q582 78 513.5 25.5Q445 -27 349 -27Q192 -27 117.5 47.5Q43 122 43 242Q43 301 63.0 348.5Q83 396 141.0 439.5Q199 483 312.0 528.5Q425 574 612 629V792Q612 860 573.0 901.0Q534 942 453 942Q394 942 352 938Q339 848 328.5 811.5Q318 775 303 753Q285 728 249.5 711.0Q214 694 168 694Q107 694 80.5 713.0Q54 732 54 762Q54 809 103.0 859.5Q152 910 235.5 954.5Q319 999 426.0 1026.5Q533 1054 648 1054Q869 1054 959.5 961.5Q1050 869 1050 708V200Q1050 138 1109 138Q1148 138 1188 153ZM458 349Q458 270 480.5 237.5Q503 205 545 205Q576 205 594.0 227.0Q612 249 612 309V571Q514 527 486.0 478.5Q458 430 458 349Z" fill="currentColor"/>
  </g>
</svg>
